<?xml version="1.0" standalone="no"?><!DOCTYPE svg PUBLIC "-//W3C//DTD SVG 1.1//EN" "http://www.w3.org/Graphics/SVG/1.1/DTD/svg11.dtd"><svg t="1652793068477" class="icon" viewBox="0 0 1024 1024" version="1.1" xmlns="http://www.w3.org/2000/svg" p-id="8490" xmlns:xlink="http://www.w3.org/1999/xlink" width="200" height="200"><defs><style type="text/css">@font-face { font-family: feedback-iconfont; src: url("//at.alicdn.com/t/font_1031158_u69w8yhxdu.woff2?t=1630033759944") format("woff2"), url("//at.alicdn.com/t/font_1031158_u69w8yhxdu.woff?t=1630033759944") format("woff"), url("//at.alicdn.com/t/font_1031158_u69w8yhxdu.ttf?t=1630033759944") format("truetype"); }
</style></defs><path d="M896 896H96a32 32 0 0 1-32-32V224a32 32 0 0 1 64 0v608h768a32 32 0 1 1 0 64z" p-id="8491" fill="#ffffff"></path><path d="M512 752.16a32 32 0 0 1-32-32V350.624a32 32 0 0 1 64 0v369.536a32 32 0 0 1-32 32zM320 752.576a32 32 0 0 1-32-32V512a32 32 0 0 1 64 0v208.576a32 32 0 0 1-32 32zM896 752.672a32 32 0 0 1-32-32V163.488a32 32 0 1 1 64 0v557.184a32 32 0 0 1-32 32zM704 752.736a32 32 0 0 1-32-32V224a32 32 0 1 1 64 0v496.736a32 32 0 0 1-32 32z" p-id="8492" fill="#ffffff"></path></svg>