<?xml version="1.0" standalone="no"?><!DOCTYPE svg PUBLIC "-//W3C//DTD SVG 1.1//EN" "http://www.w3.org/Graphics/SVG/1.1/DTD/svg11.dtd"><svg t="1652793112442" class="icon" viewBox="0 0 1024 1024" version="1.1" xmlns="http://www.w3.org/2000/svg" p-id="10146" xmlns:xlink="http://www.w3.org/1999/xlink" width="200" height="200"><defs><style type="text/css">@font-face { font-family: feedback-iconfont; src: url("//at.alicdn.com/t/font_1031158_u69w8yhxdu.woff2?t=1630033759944") format("woff2"), url("//at.alicdn.com/t/font_1031158_u69w8yhxdu.woff?t=1630033759944") format("woff"), url("//at.alicdn.com/t/font_1031158_u69w8yhxdu.ttf?t=1630033759944") format("truetype"); }
</style></defs><path d="M352 465.728v-77.792l99.04-64.928 157.696 44.32V164.384l102.208-65.344L928 164.384v692.48l-134.784 66.688-184.48-79.168v-28.704L522.656 864 352 792.96v-61.312l-83.072 51.552L96 692.96V487.04l98.432-67.904L352 465.728z m-64 93.12v174.848l64-39.68v-173.44l-64 38.272z m96-83.648l0.64 0.192-0.64 296.192 127.04 52.928V461.856L384 425.184v50.016z m256.736 348.096L768 877.92V244.8L640.736 205.44v617.888z m-32-44.32v-360.32l-65.696 35.488v361.728l65.696-36.896zM800 884.48l96-47.488V207.104l-94.464 48.544L800 884.48zM651.264 175.168l150.272 46.56 73.728-39.808-159.488-48-64.512 41.248z m-64.768 219.136l-130.112-36.544-58.24 38.208 120.736 34.848 67.616-36.48zM200 454.144l-55.808 38.528 117.504 44.64 72.64-43.424-134.336-39.712zM128 520.768v152.864l128 66.752v-170.976l-128-48.64z" p-id="10147" fill="#ffffff"></path></svg>