<?xml version="1.0" standalone="no"?><!DOCTYPE svg PUBLIC "-//W3C//DTD SVG 1.1//EN" "http://www.w3.org/Graphics/SVG/1.1/DTD/svg11.dtd"><svg t="1652793279170" class="icon" viewBox="0 0 1024 1024" version="1.1" xmlns="http://www.w3.org/2000/svg" p-id="15811" xmlns:xlink="http://www.w3.org/1999/xlink" width="200" height="200"><defs><style type="text/css">@font-face { font-family: feedback-iconfont; src: url("//at.alicdn.com/t/font_1031158_u69w8yhxdu.woff2?t=1630033759944") format("woff2"), url("//at.alicdn.com/t/font_1031158_u69w8yhxdu.woff?t=1630033759944") format("woff"), url("//at.alicdn.com/t/font_1031158_u69w8yhxdu.ttf?t=1630033759944") format("truetype"); }
</style></defs><path d="M302.72 189.984A383.712 383.712 0 0 0 128.32 496h128.16a255.84 255.84 0 0 1 114.944-197.984L302.72 189.984z m27.52-16.32l68.992 108.48A254.944 254.944 0 0 1 512 256c73.056 0 138.976 30.592 185.6 79.68l91.2-89.824A382.88 382.88 0 0 0 512 128c-65.76 0-127.648 16.512-181.76 45.632zM128.32 528C136.704 732.672 305.28 896 512 896v-128a256 256 0 0 1-255.52-240H128.32z m681.728-258.144l-91.84 90.432A256.032 256.032 0 0 1 544 766.048v128.64C741.12 878.4 896 713.28 896 512a382.4 382.4 0 0 0-85.952-242.144zM512 928C282.24 928 96 741.76 96 512S282.24 96 512 96s416 186.24 416 416-186.24 416-416 416z m0-192a224 224 0 1 0 0-448 224 224 0 0 0 0 448z" p-id="15812" fill="#ffffff"></path></svg>