<?xml version="1.0" standalone="no"?><!DOCTYPE svg PUBLIC "-//W3C//DTD SVG 1.1//EN" "http://www.w3.org/Graphics/SVG/1.1/DTD/svg11.dtd"><svg t="1652792886994" class="icon" viewBox="0 0 1024 1024" version="1.1" xmlns="http://www.w3.org/2000/svg" p-id="2597" xmlns:xlink="http://www.w3.org/1999/xlink" width="200" height="200"><defs><style type="text/css">@font-face { font-family: feedback-iconfont; src: url("//at.alicdn.com/t/font_1031158_u69w8yhxdu.woff2?t=1630033759944") format("woff2"), url("//at.alicdn.com/t/font_1031158_u69w8yhxdu.woff?t=1630033759944") format("woff"), url("//at.alicdn.com/t/font_1031158_u69w8yhxdu.ttf?t=1630033759944") format("truetype"); }
</style></defs><path d="M244.5 775.5s36.7-223 109.7-223c73.1 0 64.4 62.3 119.3 62.3 55 0 77.7-192 151.5-192s156.6 352.8 156.6 352.8H244.5z m111.9-442.3c37.1 0 67.1 30 67.1 67.2s-30 67.2-67.1 67.2c-37.1 0-67.1-30-67.1-67.2s30-67.2 67.1-67.2z m425.1-134.3h-537c-24.7 0-44.8 20.1-44.8 44.8V781c0 24.8 20.1 44.8 44.8 44.8h537.1c24.7 0 44.8-20 44.8-44.8V243.7c-0.1-24.7-20.1-44.8-44.9-44.8zM871 333.2h45.1c24.6 0 44.4 20.3 44.4 44.6v268.9c0 24.7-20.4 44.6-44.4 44.6H871V333.2z m-716 0h-45.1c-24 0-44.4 20-44.4 44.6v268.9c0 24.4 19.9 44.6 44.4 44.6H155V333.2z" fill="#ffffff" p-id="2598"></path></svg>