<?xml version="1.0" standalone="no"?><!DOCTYPE svg PUBLIC "-//W3C//DTD SVG 1.1//EN" "http://www.w3.org/Graphics/SVG/1.1/DTD/svg11.dtd"><svg t="1652793151734" class="icon" viewBox="0 0 1024 1024" version="1.1" xmlns="http://www.w3.org/2000/svg" p-id="12014" xmlns:xlink="http://www.w3.org/1999/xlink" width="200" height="200"><defs><style type="text/css">@font-face { font-family: feedback-iconfont; src: url("//at.alicdn.com/t/font_1031158_u69w8yhxdu.woff2?t=1630033759944") format("woff2"), url("//at.alicdn.com/t/font_1031158_u69w8yhxdu.woff?t=1630033759944") format("woff"), url("//at.alicdn.com/t/font_1031158_u69w8yhxdu.ttf?t=1630033759944") format("truetype"); }
</style></defs><path d="M511.913993 63.989249c-247.012263 0-447.924744 200.912481-447.924744 447.924744s200.912481 447.924744 447.924744 447.924744 447.924744-200.912481 447.924744-447.924744S758.926256 63.989249 511.913993 63.989249zM511.913993 895.677474c-211.577356 0-383.763481-172.186125-383.763481-383.763481 0-211.577356 172.014111-383.763481 383.763481-383.763481s383.763481 172.014111 383.763481 383.763481S723.491349 895.677474 511.913993 895.677474z" p-id="12015" fill="#ffffff"></path><path d="M672.05913 511.913993l-159.973123 0L512.086007 288.123635c0-17.717453-14.277171-32.166639-31.994625-32.166639-17.717453 0-31.994625 14.449185-31.994625 32.166639l0 255.956996c0 17.717453 14.277171 31.994625 31.994625 31.994625l191.967747 0c17.717453 0 32.166639-14.277171 32.166639-31.994625C704.053754 526.191164 689.604569 511.913993 672.05913 511.913993z" p-id="12016" fill="#ffffff"></path></svg>