<?xml version="1.0" standalone="no"?><!DOCTYPE svg PUBLIC "-//W3C//DTD SVG 1.1//EN" "http://www.w3.org/Graphics/SVG/1.1/DTD/svg11.dtd"><svg t="1652792952418" class="icon" viewBox="0 0 1024 1024" version="1.1" xmlns="http://www.w3.org/2000/svg" p-id="5518" xmlns:xlink="http://www.w3.org/1999/xlink" width="200" height="200"><defs><style type="text/css">@font-face { font-family: feedback-iconfont; src: url("//at.alicdn.com/t/font_1031158_u69w8yhxdu.woff2?t=1630033759944") format("woff2"), url("//at.alicdn.com/t/font_1031158_u69w8yhxdu.woff?t=1630033759944") format("woff"), url("//at.alicdn.com/t/font_1031158_u69w8yhxdu.ttf?t=1630033759944") format("truetype"); }
</style></defs><path d="M125.44 215.893333L0 170.666667l125.44-45.226667L170.666667 0l45.226666 125.44L341.333333 170.666667 215.893333 215.893333 170.666667 341.333333zM680.106667 258.56L554.666667 213.333333l125.44-45.226666L725.333333 42.666667l45.226667 125.44L896 213.333333l-125.44 45.226667L725.333333 384zM125.44 770.56L0 725.333333l125.44-45.226666L170.666667 554.666667l45.226666 125.44L341.333333 725.333333l-125.44 45.226667L170.666667 896z" p-id="5519" fill="#ffffff"></path><path d="M432.384 317.013333a51.2 51.2 0 0 1 64-7.424l4.565333 3.2 499.754667 399.061334 3.285333 2.858666a51.2 51.2 0 0 1 5.546667 68.138667l-3.626667 4.266667-207.36 218.453333-2.688 2.389333a51.2 51.2 0 0 1-68.266666-2.773333l-3.797334-4.096-410.453333-496.938667a51.2 51.2 0 0 1-1.066667-63.914666l3.925334-4.48 116.181333-118.741334z m212.650667 219.989334l-106.24 106.154666 226.218666 273.792 153.344-161.621333-273.322666-218.325333z m-173.269334-138.282667l-73.130666 74.752 85.632 103.594667 93.610666-93.653334-106.112-84.693333z" p-id="5520" fill="#ffffff"></path></svg>