<?xml version="1.0" standalone="no"?><!DOCTYPE svg PUBLIC "-//W3C//DTD SVG 1.1//EN" "http://www.w3.org/Graphics/SVG/1.1/DTD/svg11.dtd"><svg t="1652793295711" class="icon" viewBox="0 0 1024 1024" version="1.1" xmlns="http://www.w3.org/2000/svg" p-id="16756" xmlns:xlink="http://www.w3.org/1999/xlink" width="200" height="200"><defs><style type="text/css">@font-face { font-family: feedback-iconfont; src: url("//at.alicdn.com/t/font_1031158_u69w8yhxdu.woff2?t=1630033759944") format("woff2"), url("//at.alicdn.com/t/font_1031158_u69w8yhxdu.woff?t=1630033759944") format("woff"), url("//at.alicdn.com/t/font_1031158_u69w8yhxdu.ttf?t=1630033759944") format("truetype"); }
</style></defs><path d="M960 768a447.616 447.616 0 0 0-202.752-374.976l12.672-67.392A511.808 511.808 0 0 1 1024 768a32 32 0 1 1-64 0zM64 768a448 448 0 0 1 440.768-448l35.584-63.232A512 512 0 0 0 0 768a32 32 0 1 0 64 0zM696.384 149.248L606.72 731.84c-10.816 70.016-72.768 107.456-140.352 82.88l-21.568-7.872c-66.688-24.32-90.88-93.12-54.208-153.664l305.792-503.936z" fill="#ffffff" p-id="16757"></path></svg>