<?xml version="1.0" standalone="no"?><!DOCTYPE svg PUBLIC "-//W3C//DTD SVG 1.1//EN" "http://www.w3.org/Graphics/SVG/1.1/DTD/svg11.dtd"><svg t="1652793009944" class="icon" viewBox="0 0 1024 1024" version="1.1" xmlns="http://www.w3.org/2000/svg" p-id="6975" xmlns:xlink="http://www.w3.org/1999/xlink" width="200" height="200"><defs><style type="text/css">@font-face { font-family: feedback-iconfont; src: url("//at.alicdn.com/t/font_1031158_u69w8yhxdu.woff2?t=1630033759944") format("woff2"), url("//at.alicdn.com/t/font_1031158_u69w8yhxdu.woff?t=1630033759944") format("woff"), url("//at.alicdn.com/t/font_1031158_u69w8yhxdu.ttf?t=1630033759944") format("truetype"); }
</style></defs><path d="M63.58 64.12v897.906h894.836V64.119H63.58z m833.953 827.3h-768.39V127.05h768.39v764.37z" fill="#ffffff" p-id="6976"></path><path d="M205.578 649.805h-25.566V465.35h25.566v79.194h87.676V465.35h25.441v184.455h-25.442v-83.31h-87.676v83.31z m201.167 0V487.299H345.01v-21.95h149.16v21.95h-61.859v162.506h-25.566z m282.731 0V483.807h-0.497l-58.992 165.997h-24.069l-58.99-165.997h-0.499v165.997h-25.566V465.35h45.771l53.128 152.028h0.5l52.13-152.028h42.653v184.455h-25.569z m184.082 0H762.186V465.35h25.566v162.505h85.806v21.95z m-42.983-433.243l-191.861 16.884 38.832 40.794c-6.987 7.475-56.188 62.11-78.973 141.857 0 0 127.907-90.559 161.674-53.72l-34.014-36.99 64.434 67.687 39.908-176.512z" fill="#ffffff" p-id="6977"></path></svg>