<?xml version="1.0" standalone="no"?><!DOCTYPE svg PUBLIC "-//W3C//DTD SVG 1.1//EN" "http://www.w3.org/Graphics/SVG/1.1/DTD/svg11.dtd"><svg t="1652793239271" class="icon" viewBox="0 0 1024 1024" version="1.1" xmlns="http://www.w3.org/2000/svg" p-id="15179" xmlns:xlink="http://www.w3.org/1999/xlink" width="200" height="200"><defs><style type="text/css">@font-face { font-family: feedback-iconfont; src: url("//at.alicdn.com/t/font_1031158_u69w8yhxdu.woff2?t=1630033759944") format("woff2"), url("//at.alicdn.com/t/font_1031158_u69w8yhxdu.woff?t=1630033759944") format("woff"), url("//at.alicdn.com/t/font_1031158_u69w8yhxdu.ttf?t=1630033759944") format("truetype"); }
</style></defs><path d="M896 896H96a32 32 0 0 1-32-32V224a32 32 0 0 1 64 0v608h768a32 32 0 1 1 0 64z" p-id="15180" fill="#ffffff"></path><path d="M247.008 640a32 32 0 0 1-20.992-56.192l200.992-174.24a32 32 0 0 1 42.272 0.288l172.128 153.44 229.088-246.304a32 32 0 0 1 46.88 43.616l-250.432 269.216a31.936 31.936 0 0 1-44.704 2.08l-174.56-155.52-179.744 155.84a31.872 31.872 0 0 1-20.928 7.776z" p-id="15181" fill="#ffffff"></path></svg>