<?xml version="1.0" standalone="no"?><!DOCTYPE svg PUBLIC "-//W3C//DTD SVG 1.1//EN" "http://www.w3.org/Graphics/SVG/1.1/DTD/svg11.dtd"><svg t="1652793025466" class="icon" viewBox="0 0 1073 1024" version="1.1" xmlns="http://www.w3.org/2000/svg" p-id="7413" xmlns:xlink="http://www.w3.org/1999/xlink" width="209.5703125" height="200"><defs><style type="text/css">@font-face { font-family: feedback-iconfont; src: url("//at.alicdn.com/t/font_1031158_u69w8yhxdu.woff2?t=1630033759944") format("woff2"), url("//at.alicdn.com/t/font_1031158_u69w8yhxdu.woff?t=1630033759944") format("woff"), url("//at.alicdn.com/t/font_1031158_u69w8yhxdu.ttf?t=1630033759944") format("truetype"); }
</style></defs><path d="M881.627018 0H191.597683A191.850117 191.850117 0 0 0 0 191.597683V833.033403a191.850117 191.850117 0 0 0 191.597683 190.966597h690.029335A191.850117 191.850117 0 0 0 1072.84605 833.033403V191.597683A191.850117 191.850117 0 0 0 881.627018 0z m-580.599038 703.408357h-70.429188V426.614076c-7.320597 5.174904-15.398496 10.476026-24.233699 15.650931a329.048194 329.048194 0 0 1-50.486873 25.243436l-17.039319 5.553556v-70.176753l7.320596-3.407864a265.056083 265.056083 0 0 0 63.865894-41.65167 160.043387 160.043387 0 0 0 37.865155-45.816837l3.534081-7.068163h49.855787z m356.689757 0h-270.10477v-12.621718a92.390977 92.390977 0 0 1 6.184642-36.602983 181.500308 181.500308 0 0 1 32.185381-53.137434 487.324541 487.324541 0 0 1 61.341551-57.807469A496.538395 496.538395 0 0 0 566.588931 467.003575a82.798472 82.798472 0 0 0 18.932578-47.457661 48.593615 48.593615 0 0 0-15.524714-36.602983 57.428818 57.428818 0 0 0-41.904104-15.146062 58.564773 58.564773 0 0 0-43.797363 16.1558 62.225071 62.225071 0 0 0-16.282016 45.943054v13.88389l-73.079749-7.573031 1.135955-12.621718a127.353137 127.353137 0 0 1 40.515716-88.352028 136.062123 136.062123 0 0 1 92.643411-30.670775 130.003698 130.003698 0 0 1 93.400715 33.195119 109.556514 109.556514 0 0 1 35.088377 82.546037 124.450142 124.450142 0 0 1-10.097375 48.84605 181.87896 181.87896 0 0 1-32.437815 48.846049 770.682115 770.682115 0 0 1-71.69136 66.642672c-27.010477 22.719093-44.428448 37.865155-51.749045 45.816838l-3.155429 3.407864h169.509676z m253.570319-30.796993a137.702946 137.702946 0 0 1-98.449402 37.865155 129.246395 129.246395 0 0 1-89.740417-32.437816 124.828793 124.828793 0 0 1-40.894367-83.681992l-1.262171-12.621718 69.41945-9.213854 2.398126 11.485764a88.352028 88.352028 0 0 0 22.84531 49.098483 53.011217 53.011217 0 0 0 37.865155 13.88389A60.710465 60.710465 0 0 0 858.27684 628.309133a62.351288 62.351288 0 0 0 18.553925-46.321705 57.681252 57.681252 0 0 0-16.786885-42.913842 58.69099 58.69099 0 0 0-43.418711-16.660668 119.527672 119.527672 0 0 0-28.903734 4.543818l-17.796623 4.796253 8.96142-70.934056 12.621718 1.388389h5.932208a81.157648 81.157648 0 0 0 45.564403-12.621719 39.379761 39.379761 0 0 0 17.544188-36.350548 42.913842 42.913842 0 0 0-12.621718-32.437816 47.836312 47.836312 0 0 0-35.088377-12.621718 49.603353 49.603353 0 0 0-35.719463 13.379021 72.322445 72.322445 0 0 0-18.932577 42.913842l-2.019475 12.621718-70.807839-12.621718 2.271909-12.621718a129.877481 129.877481 0 0 1 42.282756-78.38087 122.178232 122.178232 0 0 1 81.914952-28.272649 133.790213 133.790213 0 0 1 61.720202 14.388759 107.537039 107.537039 0 0 1 44.302231 40.389498 104.507827 104.507827 0 0 1 15.398496 54.399605 90.623937 90.623937 0 0 1-15.019845 50.486873 89.614199 89.614199 0 0 1-19.816097 21.709356 93.400715 93.400715 0 0 1 32.185381 26.758042A108.546777 108.546777 0 0 1 950.667817 580.599039a122.30445 122.30445 0 0 1-39.379761 92.012325z" fill="#ffffff" p-id="7414"></path></svg>