<?xml version="1.0" standalone="no"?><!DOCTYPE svg PUBLIC "-//W3C//DTD SVG 1.1//EN" "http://www.w3.org/Graphics/SVG/1.1/DTD/svg11.dtd"><svg t="1652793181346" class="icon" viewBox="0 0 1024 1024" version="1.1" xmlns="http://www.w3.org/2000/svg" p-id="12921" xmlns:xlink="http://www.w3.org/1999/xlink" width="200" height="200"><defs><style type="text/css">@font-face { font-family: feedback-iconfont; src: url("//at.alicdn.com/t/font_1031158_u69w8yhxdu.woff2?t=1630033759944") format("woff2"), url("//at.alicdn.com/t/font_1031158_u69w8yhxdu.woff?t=1630033759944") format("woff"), url("//at.alicdn.com/t/font_1031158_u69w8yhxdu.ttf?t=1630033759944") format("truetype"); }
</style></defs><path d="M959.825022 384.002258V191.939717C959.825022 121.2479 902.517291 63.940169 831.825474 63.940169H191.939717C121.2479 63.940169 63.940169 121.2479 63.940169 191.939717v639.885757C63.940169 902.517291 121.2479 959.825022 191.939717 959.825022h639.885757c70.691817 0 127.999548-57.307731 127.999548-127.999548V384.002258zM146.66502 146.66502a63.737872 63.737872 0 0 1 45.336109-18.784682h639.997742A63.961844 63.961844 0 0 1 895.884854 192.001129V320.062089H127.880338V192.001129A63.737872 63.737872 0 0 1 146.66502 146.66502z m269.1267 461.308451v-223.971213h192.181751v223.971213h-192.181751z m192.181751 63.940169v223.971214h-192.181751v-223.971214h192.181751z m-256.12192-63.940169H127.880338v-223.971213h223.971213v223.971213z m-205.186531 269.235073a63.466939 63.466939 0 0 1-18.784682-45.209673V671.91364h223.971213v223.971214H192.001129a63.625887 63.625887 0 0 1-45.336109-18.67631z m749.219834-45.209673A63.763159 63.763159 0 0 1 831.998871 895.884854H671.91364v-223.971214h223.971214v160.085231z m0-224.0254h-223.971214v-223.971213h223.971214v223.971213z" fill="#ffffff" p-id="12922"></path></svg>