<?xml version="1.0" standalone="no"?><!DOCTYPE svg PUBLIC "-//W3C//DTD SVG 1.1//EN" "http://www.w3.org/Graphics/SVG/1.1/DTD/svg11.dtd"><svg t="1652793222238" class="icon" viewBox="0 0 1024 1024" version="1.1" xmlns="http://www.w3.org/2000/svg" p-id="14303" xmlns:xlink="http://www.w3.org/1999/xlink" width="200" height="200"><defs><style type="text/css">@font-face { font-family: feedback-iconfont; src: url("//at.alicdn.com/t/font_1031158_u69w8yhxdu.woff2?t=1630033759944") format("woff2"), url("//at.alicdn.com/t/font_1031158_u69w8yhxdu.woff?t=1630033759944") format("woff"), url("//at.alicdn.com/t/font_1031158_u69w8yhxdu.ttf?t=1630033759944") format("truetype"); }
</style></defs><path d="M512 960a448 448 0 1 1 448-448 448 448 0 0 1-448 448z m0-832a384 384 0 1 0 384 384A384 384 0 0 0 512 128z" fill="#ffffff" p-id="14304"></path><path d="M184.64 768a416 416 0 0 0 654.72 0zM336 688a32 32 0 0 1-22.72-9.28 32 32 0 0 1 0-45.44l352-352a32 32 0 0 1 45.44 45.44l-352 352a32 32 0 0 1-22.72 9.28zM384 448a96 96 0 1 1 96-96 96 96 0 0 1-96 96z m0-128a32 32 0 1 0 32 32 32 32 0 0 0-32-32zM640 704a96 96 0 1 1 96-96 96 96 0 0 1-96 96z m0-128a32 32 0 1 0 32 32 32 32 0 0 0-32-32z" fill="#ffffff" p-id="14305"></path></svg>