<?xml version="1.0" standalone="no"?><!DOCTYPE svg PUBLIC "-//W3C//DTD SVG 1.1//EN" "http://www.w3.org/Graphics/SVG/1.1/DTD/svg11.dtd"><svg t="1638521263357" class="icon" viewBox="0 0 1024 1024" version="1.1" xmlns="http://www.w3.org/2000/svg" p-id="2585" width="200" height="200" xmlns:xlink="http://www.w3.org/1999/xlink"><defs><style type="text/css"></style></defs><path d="M597.333333 512a85.333333 85.333333 0 1 1-170.666666 0 85.333333 85.333333 0 0 1 170.666666 0z" p-id="2586" fill="#41b883"></path><path d="M512 210.304L391.338667 330.965333 330.965333 270.634667 512 89.642667l181.034667 180.992-60.330667 60.330666L512 210.346667z m181.034667 181.034667l60.330666-60.373334L934.4 512l-181.034667 181.034667-60.330666-60.373334L813.653333 512l-120.661333-120.661333z m-60.330667 301.653333L512 813.781333l-120.661333-120.746666-60.373334 60.373333L512 934.357333l181.034667-180.992-60.330667-60.330666z m-362.069333 0L89.642667 512l180.992-181.034667 60.330666 60.373334L210.346667 512l120.661333 120.661333-60.330667 60.373334z" p-id="2587" fill="#41b883"></path></svg>